<svg width="100" height="93" viewBox="0 0 100 93" fill="none" xmlns="http://www.w3.org/2000/svg">
<path d="M70.9396 65.8152H42.4169C41.6214 65.8152 40.9617 66.4749 40.9617 67.2704C40.9617 68.0659 41.6214 68.7256 42.4169 68.7256H70.9396C76.5665 68.7256 81.1262 64.1465 81.1262 58.539V36.691C81.1262 31.0641 76.5471 26.5043 70.9396 26.5043H62.6738L43.8915 16.9192C42.0094 15.9684 39.7199 16.7057 38.7691 18.5878L34.7332 26.5043H29.3392C27.4571 26.5043 25.9436 28.0372 25.9436 29.8999V65.3495C25.9436 67.2316 27.4765 68.745 29.3392 68.745H36.0333C36.8288 68.745 37.4885 68.0853 37.4885 67.2898C37.4885 66.4943 36.8288 65.8346 36.0333 65.8346H29.3392C29.0675 65.8346 28.8541 65.6211 28.8541 65.3495V29.8999C28.8541 29.6282 29.0675 29.4148 29.3392 29.4148H70.959C74.9754 29.4148 78.2352 32.6745 78.2352 36.691V41.4254H66.6321C62.9261 41.4254 59.8992 44.4523 59.8992 48.1583V50.0986C59.8992 53.8046 62.9261 56.8315 66.6321 56.8315H78.2352V58.539C78.2158 62.5554 74.9366 65.8152 70.9396 65.8152ZM41.3497 19.8879C41.5826 19.4416 42.1259 19.267 42.5721 19.4998L56.2708 26.5043H37.9736L41.3497 19.8879ZM66.6127 53.921C64.4977 53.921 62.7902 52.2135 62.7902 50.0986V48.1583C62.7902 46.0433 64.4977 44.3359 66.6127 44.3359H78.2158V53.921H66.6127Z" fill="#C913CD"/>
<path d="M95.8338 28.7562C93.5055 23.1098 90.1487 18.0456 85.8412 13.7187C84.774 12.6515 83.6681 11.6232 82.5233 10.6724C81.9024 10.1679 80.9904 10.2455 80.4665 10.8664C79.9621 11.4873 80.0397 12.3993 80.6606 12.9232C81.7472 13.8157 82.7949 14.7859 83.7845 15.7754C91.9338 23.983 96.4353 34.8876 96.4353 46.4713C96.4353 58.1132 91.895 69.0565 83.6681 77.2835C75.4411 85.5104 64.4977 90.0508 52.8558 90.0508C43.6587 90.0508 34.9079 87.2373 27.4765 81.9014L29.2034 79.6701C36.1303 84.6179 44.299 87.2373 52.8558 87.2373C63.741 87.2373 73.9859 82.988 81.7083 75.2461C89.4114 67.5237 93.6413 57.2594 93.6219 46.3742C93.5637 24.0024 75.3247 5.78282 52.9723 5.72461C52.9334 5.72461 52.8946 5.72461 52.8752 5.72461C46.3752 5.72461 40.1468 7.21865 34.384 10.1679C28.8541 13.0008 23.9645 17.1143 20.2391 22.1009C19.754 22.7412 19.8899 23.6531 20.5302 24.1382C21.1705 24.6233 22.0824 24.4875 22.5675 23.8472C29.7079 14.3202 41.0199 8.65449 52.8752 8.65449C52.914 8.65449 52.9334 8.65449 52.9723 8.65449C73.7336 8.7127 90.6726 25.6517 90.7308 46.413C90.7502 56.5221 86.8308 66.049 79.671 73.2282C72.5112 80.4074 63.0037 84.3656 52.8946 84.3656C44.7259 84.3656 36.9452 81.8044 30.4258 76.973C29.4556 76.2551 28.078 76.4492 27.3601 77.3999L24.7989 80.7373C24.4302 81.2029 24.275 81.8044 24.3526 82.3865C24.4302 82.988 24.7407 83.5119 25.2257 83.8612C33.278 89.8373 42.8438 93 52.8946 93C65.3127 93 76.9934 88.1687 85.7636 79.379C94.5144 70.57 99.3458 58.8893 99.3458 46.4713C99.3458 40.3593 98.1622 34.4025 95.8338 28.7562Z" fill="#300390"/>
<path d="M19.0553 39.4272C18.7837 38.9615 18.3374 38.6317 17.8135 38.4959C17.2897 38.3601 16.7464 38.4377 16.2807 38.7093L15.7568 39.0198C16.4165 35.6824 17.5419 32.4421 19.0942 29.3958C19.4628 28.6779 19.1718 27.8047 18.4538 27.4361C17.7359 27.0674 16.8628 27.3585 16.4941 28.0764C14.321 32.3451 12.9434 36.9242 12.3807 41.678C12.3225 42.2213 12.5747 42.7646 13.0404 43.075C13.506 43.3855 14.1075 43.3855 14.5732 43.1138L16.9986 41.678L18.4344 44.1034L10.1299 49.0318L3.28059 42.8228L5.1821 40.7272L7.14181 42.4929C7.54928 42.8616 8.13137 42.978 8.63586 42.784C9.14034 42.5899 9.509 42.1243 9.56721 41.581C10.6538 31.6854 14.9807 22.7211 22.0628 15.6583C30.251 7.47022 41.1361 2.92988 52.7198 2.89107C52.778 2.89107 52.8168 2.89107 52.875 2.89107C60.8497 2.89107 68.611 5.04482 75.3439 9.11949C76.023 9.52695 76.9349 9.31352 77.3424 8.63441C77.7499 7.9553 77.5364 7.04335 76.8573 6.63588C69.6588 2.28957 61.3736 0 52.875 0C52.8168 0 52.778 0 52.7198 0C46.6078 0.0194032 40.651 1.2224 35.0047 3.57018C29.3778 5.91796 24.3136 9.29411 20.0061 13.621C13.118 20.5091 8.67466 29.0659 7.0642 38.5153L6.50151 37.9914C6.09404 37.6227 5.58956 37.4481 5.04627 37.4675C4.50299 37.4869 3.9985 37.7391 3.64925 38.1272L0.52534 41.5228C0.15668 41.9302 -0.0179479 42.4347 0.00145524 42.978C0.0208584 43.5213 0.273099 44.0258 0.661162 44.375L8.53884 51.5348C8.96571 51.9229 9.48959 52.1169 10.0329 52.1169C10.4209 52.1169 10.809 52.0199 11.1583 51.8064L20.6658 46.1795C21.636 45.6168 21.9464 44.3556 21.3837 43.4049L19.0553 39.4272Z" fill="#300390"/>
<path d="M67.6214 51.5731C68.9823 51.5731 70.0856 50.4698 70.0856 49.1089C70.0856 47.7479 68.9823 46.6447 67.6214 46.6447C66.2604 46.6447 65.1572 47.7479 65.1572 49.1089C65.1572 50.4698 66.2604 51.5731 67.6214 51.5731Z" fill="#C913CD"/>
</svg>
