<svg width="98" height="95" viewBox="0 0 98 95" fill="none" xmlns="http://www.w3.org/2000/svg">
<path d="M91.2216 41.135C90.8341 30.3233 86.4552 20.1897 78.7629 12.4974C70.7026 4.43708 59.9877 0 48.5947 0C25.5762 0 6.76218 18.3296 5.96777 41.135C2.46074 42.7045 0 46.2115 0 50.2998V61.5572C0 67.0793 4.4952 71.5745 10.0173 71.5745C13.6019 71.5745 16.5082 68.6682 16.5082 65.0836V46.754C16.5082 43.402 13.9313 40.6506 10.6567 40.3212C11.858 20.4609 28.405 4.65021 48.5947 4.65021C58.7477 4.65021 68.3 8.6029 75.4884 15.7914C82.0956 22.3985 85.9514 31.0014 86.5327 40.3406C83.2581 40.67 80.6812 43.402 80.6812 46.754V65.0836C80.6812 68.4744 83.2969 71.2258 86.6102 71.5164V76.1666C86.6102 81.3787 82.3669 85.6221 77.1547 85.6221H70.1407C69.7919 84.6339 69.2494 83.7232 68.4937 82.9869C67.1762 81.65 65.3936 80.9137 63.5141 80.9137H56.2869C55.2406 80.9137 54.2525 81.1269 53.3418 81.5531C50.8617 82.6963 49.2535 85.1958 49.2535 87.9472C49.2535 89.8266 49.9898 91.5898 51.3073 92.9268C52.6443 94.2637 54.4075 95 56.2869 95H63.5141C66.5174 95 69.1525 93.0624 70.1407 90.2917H77.1354C84.9245 90.2917 91.241 83.9557 91.241 76.186V70.722C94.7287 69.1526 97.17 65.6455 97.17 61.5766V50.3192C97.2088 46.2115 94.748 42.7045 91.2216 41.135ZM11.858 46.754V65.0836C11.858 66.0912 11.0443 66.9243 10.0173 66.9243C7.05282 66.9243 4.65021 64.5217 4.65021 61.5572V50.2998C4.65021 47.3353 7.05282 44.9327 10.0173 44.9327C11.0249 44.9327 11.858 45.7465 11.858 46.754ZM65.8586 88.451C65.6261 89.536 64.6379 90.3498 63.5335 90.3498H56.3063C55.6669 90.3498 55.0662 90.0979 54.6206 89.6523C54.1749 89.2066 53.9231 88.606 53.9231 87.9666C53.9231 87.0365 54.4656 86.184 55.3181 85.7965C55.6281 85.6608 55.9575 85.5833 56.3063 85.5833H63.5335C64.1729 85.5833 64.7736 85.8352 65.2192 86.2809C65.6648 86.7265 65.9167 87.3271 65.9167 87.9666C65.9167 88.1216 65.8974 88.2959 65.8586 88.451ZM92.5586 61.5572C92.5586 64.5217 90.156 66.9243 87.1914 66.9243C86.1839 66.9243 85.3507 66.1105 85.3507 65.0836V46.754C85.3507 45.7465 86.1645 44.9133 87.1914 44.9133C90.156 44.9133 92.5586 47.3159 92.5586 50.2804V61.5572Z" fill="#300390"/>
<path d="M63.6497 62.3513C69.075 62.3513 73.4927 57.9336 73.4927 52.5084V32.435C73.4927 29.7999 72.4658 27.3391 70.6057 25.479C68.7456 23.619 66.2655 22.592 63.6497 22.592H33.5397C28.1144 22.592 23.6967 27.0097 23.6967 32.435V52.5084C23.6967 57.9336 28.1144 62.3513 33.5397 62.3513H33.7334V67.544C33.7334 69.5204 34.9153 71.2836 36.7367 72.0392C37.3179 72.2717 37.938 72.388 38.558 72.388C39.8174 72.388 41.0575 71.8842 41.9682 70.9542L50.6292 62.3513H63.6497ZM48.0134 58.3792L38.6549 67.699C38.6161 67.7378 38.5774 67.7765 38.4999 67.7378C38.3836 67.699 38.3836 67.6215 38.3836 67.5634V60.0456C38.3836 58.7668 37.3373 57.7205 36.0585 57.7205H33.5397C30.672 57.7205 28.3469 55.3954 28.3469 52.5277V32.435C28.3469 29.5673 30.672 27.2422 33.5397 27.2422H63.6497C65.0448 27.2422 66.343 27.7848 67.3312 28.7729C68.3193 29.7611 68.8618 31.0593 68.8618 32.4543V52.5277C68.8618 55.3954 66.5367 57.7205 63.6691 57.7205H49.6604C49.0403 57.7011 48.4397 57.953 48.0134 58.3792Z" fill="#C913CD"/>
<path d="M37.2984 39.4103C35.3996 39.4103 33.8689 40.9603 33.8689 42.8398C33.8689 44.7193 35.419 46.2693 37.2984 46.2693C39.1972 46.2693 40.7279 44.7193 40.7279 42.8398C40.7279 40.9603 39.1972 39.4103 37.2984 39.4103Z" fill="#C913CD"/>
<path d="M48.5946 39.4103C46.6958 39.4103 45.1651 40.9603 45.1651 42.8398C45.1651 44.7193 46.7152 46.2693 48.5946 46.2693C50.4935 46.2693 52.0242 44.7193 52.0242 42.8398C52.0242 40.9603 50.4935 39.4103 48.5946 39.4103Z" fill="#C913CD"/>
<path d="M59.8911 39.4103C57.9922 39.4103 56.4615 40.9603 56.4615 42.8398C56.4615 44.7193 58.0116 46.2693 59.8911 46.2693C61.7899 46.2693 63.3206 44.7193 63.3206 42.8398C63.3206 40.9603 61.7705 39.4103 59.8911 39.4103Z" fill="#C913CD"/>
</svg>
