<svg width="98" height="98" viewBox="0 0 98 98" fill="none" xmlns="http://www.w3.org/2000/svg">
<path d="M93.2723 27.9836L88.0852 30.4527C90.8605 36.2715 92.2578 42.5113 92.2578 49C92.2578 60.5609 87.7598 71.4137 79.5867 79.5867C71.4137 87.7598 60.5609 92.2578 49 92.2578C37.4391 92.2578 26.5863 87.7598 18.4133 79.5867C10.2402 71.4137 5.74219 60.5609 5.74219 49C5.74219 37.4391 10.2402 26.5863 18.4133 18.4133C26.5863 10.2402 37.4391 5.74219 49 5.74219C58.6277 5.74219 67.7769 8.86211 75.2801 14.6426L70.7629 15.4848L71.8156 21.1313L84.4293 18.7961L84.7355 5.97188L78.9934 5.83789L78.8977 10.1828C70.3609 3.5793 59.9484 0 49 0C35.9078 0 23.6004 5.09141 14.3555 14.3555C5.09141 23.6004 0 35.9078 0 49C0 62.0922 5.09141 74.3996 14.3555 83.6445C23.6195 92.9086 35.9078 98 49 98C62.0922 98 74.3996 92.9086 83.6445 83.6445C92.9086 74.3805 98 62.0922 98 49C98 41.65 96.4113 34.568 93.2723 27.9836Z" fill="#300390"/>
<path d="M14.6617 49C14.6617 67.9301 30.0699 83.3383 49 83.3383C67.9301 83.3383 83.3383 67.9301 83.3383 49C83.3383 30.0699 67.9301 14.6617 49 14.6617C30.0699 14.6617 14.6617 30.0699 14.6617 49ZM77.4429 46.1289H72.275V51.8711H77.4429C76.084 65.3461 65.3461 76.1031 51.8711 77.4429V72.275H46.1289V77.4429C32.6539 76.084 21.8969 65.3461 20.5571 51.8711H25.725V46.1289H20.5571C21.916 32.6539 32.6539 21.8969 46.1289 20.5571V25.725H51.8711V20.5571C65.3461 21.8969 76.1031 32.6539 77.4429 46.1289Z" fill="#C913CD"/>
<path d="M51.8711 32.4625H46.1289V51.8711H65.5375V46.1289H51.8711V32.4625Z" fill="#C913CD"/>
</svg>
