<svg width="181" height="91" viewBox="0 0 181 91" fill="none" xmlns="http://www.w3.org/2000/svg">
<path d="M102.856 35.3906C95.7625 35.3906 90.2087 29.7013 90.2087 22.4435C90.2087 15.1501 95.7625 9.43945 102.856 9.43945C105.936 9.43945 108.923 10.5516 111.276 12.5621L110.114 13.9167C108.118 12.2057 105.473 11.2218 102.863 11.2218C96.7749 11.2218 92.0053 16.1482 92.0053 22.4364C92.0053 28.696 96.7749 33.594 102.863 33.594C104.632 33.594 106.364 33.1662 107.904 32.3606V29.5088H102.978V27.7193H109.686V33.4015L109.244 33.6581C107.319 34.7917 105.109 35.3906 102.856 35.3906Z" fill="#673DE6"/>
<path d="M102.856 44.8869C99.1989 44.8869 95.7055 44.0528 92.4687 42.3987L92.4188 42.3702C92.3475 42.3274 92.1194 42.2134 91.8057 42.0494C88.2267 40.1815 87.9914 39.9391 87.8132 39.5541C87.4068 38.6843 85.3322 36.3601 84.1202 35.0982L84.0275 34.9841C81.5108 31.2839 80.1776 26.9492 80.1776 22.4434C80.1776 17.9448 81.5108 13.6101 84.0275 9.90991C86.1734 6.7587 89.1179 4.17785 92.5472 2.44539C95.7697 0.819884 99.2346 0 102.856 0C108.168 0 113.165 1.77523 117.308 5.12606L116.181 6.5163C112.36 3.42213 107.754 1.78949 102.849 1.78949C99.5055 1.78949 96.3115 2.54521 93.3456 4.04239C90.1873 5.63938 87.471 8.01348 85.4961 10.9152C83.1791 14.3159 81.9599 18.3012 81.9599 22.4434C81.9599 26.5571 83.1719 30.5211 85.4605 33.9147C85.9667 34.4423 88.5974 37.2228 89.3532 38.6487C89.8451 39.0194 91.9198 40.0959 92.6256 40.4667C93.0034 40.6663 93.1959 40.7661 93.2957 40.8231C96.2758 42.3346 99.4912 43.1045 102.856 43.1045C108.403 43.1045 113.657 40.8944 117.693 36.8663V21.3812H102.97V19.5917H119.475V37.5935L119.225 37.8502C114.819 42.3916 109.002 44.8869 102.856 44.8869Z" fill="#673DE6"/>
<path d="M83.4714 44.2952C71.2587 44.2952 61.3274 34.4922 61.3274 22.4506C61.3274 16.6401 63.6516 11.1576 67.8651 7.00824C72.0714 2.87317 77.611 0.598877 83.4714 0.598877C86.9078 0.598877 90.1445 1.4045 93.0819 2.98724L93.5881 3.25816L93.0747 3.51481C89.8237 5.15458 87.029 7.59998 85.0042 10.5872L84.9044 10.7369L84.7262 10.7155C84.2842 10.6585 83.8778 10.6371 83.4785 10.6371C77.2331 10.6371 71.9645 16.0484 71.9645 22.4506C71.9645 28.9669 77.1333 34.2641 83.4785 34.2641C83.8849 34.2641 84.2913 34.2427 84.7333 34.1928C87.7704 33.8505 90.5723 32.2536 92.6256 29.687L92.7967 29.4659L96.9389 32.3605L101.673 34.4352L101.466 34.7346C99.5197 37.5008 95.6556 40.4809 93.0106 41.8783C89.9663 43.4753 86.7581 44.2952 83.4714 44.2952Z" fill="#673DE6"/>
<path d="M0 69.2414C0 61.6485 6.33807 55.4602 13.9737 55.4602C18.4937 55.4602 21.9087 57.6275 24.454 60.6647L19.8982 64.65C18.4937 62.939 16.5973 61.4988 13.9737 61.4988C9.90991 61.4988 6.41649 64.9566 6.41649 69.2414C6.41649 73.4549 9.79584 76.984 13.9737 76.984C16.5189 76.984 18.6078 75.6935 19.9695 73.9825L24.4468 77.8965C21.9016 80.8552 18.1801 83.0226 13.9666 83.0226C6.30955 83.0226 0 76.8342 0 69.2414Z" fill="#673DE6"/>
<path d="M38.998 63.8511L38.4633 70.0038C37.9286 69.8541 37.3226 69.74 36.6809 69.74C34.592 69.74 33.38 70.8023 33.38 73.6541V82.5374H27.4982V64.1933H33.159V66.9239C33.8434 65.0988 34.9057 63.7727 37.8288 63.7727C38.2779 63.7727 38.6558 63.8155 38.998 63.8511Z" fill="#673DE6"/>
<path d="M58.3615 75.3939H46.213C46.6693 76.9481 47.8813 77.8251 50.0486 77.8251C51.5672 77.8251 53.6918 77.4044 55.5882 76.6131L57.4133 81.2828C54.8325 82.5733 52.0948 82.9511 50.0843 82.9511C43.6321 82.9511 40.1387 79.0371 40.1387 73.4191C40.1387 67.6514 43.7818 63.7373 49.3642 63.7373C54.9109 63.7373 58.554 67.687 58.554 73.2266C58.554 74.0251 58.4756 74.6739 58.3615 75.3939ZM46.1702 71.5583H52.551C52.1304 69.7759 51.0681 68.8634 49.3642 68.8634C47.6175 68.8634 46.5552 69.89 46.1702 71.5583Z" fill="#673DE6"/>
<path d="M77.2331 71.7081V82.5305H72.3708V81.7677L71.8361 81.5395C70.7739 82.3737 69.3337 82.944 67.4302 82.944C63.4448 82.944 60.6358 80.5129 60.6358 77.1692C60.6358 73.7114 63.5945 71.2446 68.1146 71.2446C69.2125 71.2446 70.4316 71.3944 71.6436 71.7009V71.5084C71.6436 69.5336 69.9754 68.7779 68.2286 68.7779C67.1307 68.7779 65.7619 69.0844 63.7086 70.2608L61.4272 66.0473C63.2523 64.6428 65.605 63.7302 68.4497 63.7302C73.4331 63.7374 77.2331 66.4679 77.2331 71.7081ZM68.8418 78.2814C69.7187 78.2814 70.6669 78.0176 71.6508 77.4472V75.4367C70.5528 75.173 69.4478 75.0589 68.8418 75.0589C67.4373 75.0589 66.5604 75.7005 66.5604 76.6131C66.5604 77.4829 67.3945 78.2814 68.8418 78.2814Z" fill="#673DE6"/>
<path d="M92.2691 69.3198H88.5832V75.5865C88.5832 76.877 89.1179 77.3689 90.0233 77.3689C90.444 77.3689 90.9359 77.2548 91.3922 77.1051L91.9982 82.1955C91.0856 82.5734 89.8736 82.8015 88.4263 82.8015C84.2913 82.8015 82.6943 80.8623 82.6943 76.4634V69.3198H79.8853V64.158H82.6943V58.9963H88.5761V64.158H92.262V69.3198H92.2691Z" fill="#673DE6"/>
<path d="M94.6574 58.7611C94.6574 56.7078 96.3257 55.0039 98.4503 55.0039C100.504 55.0039 102.208 56.715 102.208 58.7611C102.208 60.8144 100.496 62.5183 98.4503 62.5183C96.3257 62.5183 94.6574 60.8144 94.6574 58.7611ZM95.4916 82.5306V64.151H101.373V82.5306H95.4916Z" fill="#673DE6"/>
<path d="M116.83 64.1509H123.168L115.575 82.6019H111.02L103.462 64.1509H109.879L113.408 73.0769L116.83 64.1509Z" fill="#673DE6"/>
<path d="M138.703 67.9866H148.691V78.695C146.111 81.3543 142.617 83.0226 138.632 83.0226C130.961 83.0226 124.701 76.9127 124.701 69.2414C124.701 61.5701 130.968 55.4602 138.632 55.4602C142.047 55.4602 145.127 56.6722 147.515 58.6114L143.644 63.3596C142.318 62.2189 140.528 61.4988 138.632 61.4988C134.497 61.4988 131.117 64.8425 131.117 69.2414C131.117 73.569 134.418 76.9483 138.632 76.9483C140.036 76.9483 141.327 76.5705 142.432 75.9217V73.1911H138.71V67.9866H138.703Z" fill="#C913CD"/>
<path d="M152.028 58.7611C152.028 56.7078 153.696 55.0039 155.821 55.0039C157.874 55.0039 159.578 56.715 159.578 58.7611C159.578 60.8144 157.867 62.5183 155.821 62.5183C153.696 62.5183 152.028 60.8144 152.028 58.7611ZM152.862 82.5306V64.151H158.744V82.5306H152.862Z" fill="#C913CD"/>
<path d="M175.149 64.1937H180.802V81.4683C180.802 87.3501 177.501 91.0004 171.042 91.0004C168.725 91.0004 166.487 90.5085 164.74 89.71L166.75 84.6623C168.155 85.2327 169.638 85.5321 170.778 85.5321C173.587 85.5321 174.914 83.707 174.914 81.1689V80.9051C173.509 82.1955 171.727 82.9584 169.787 82.9584C165.004 82.9584 161.589 78.6665 161.589 73.3551C161.589 68.0365 165.004 63.7517 169.787 63.7517C171.841 63.7517 173.701 64.5859 175.142 66.0331V64.1937H175.149ZM174.999 73.3408C174.999 71.1378 173.445 69.277 171.356 69.277C169.189 69.277 167.634 71.1378 167.634 73.3408C167.634 75.5438 169.189 77.4402 171.356 77.4402C173.445 77.4402 174.999 75.5794 174.999 73.3408Z" fill="#C913CD"/>
</svg>
