<svg width="105" height="105" viewBox="0 0 105 105" fill="none" xmlns="http://www.w3.org/2000/svg">
<path d="M104.938 29.9414C104.836 29.5518 104.569 29.2031 104.221 28.998L68.7012 8.49023V1.53809C68.7012 0.697266 68.0039 0 67.1631 0H1.53809C0.697266 0 0 0.697266 0 1.53809V103.462C0 104.303 0.697266 105 1.53809 105H67.1631C68.0039 105 68.7012 104.303 68.7012 103.462V93.6182L104.795 31.1104C105 30.7617 105.062 30.3311 104.938 29.9414ZM68.7012 40.2773L82.0312 47.9883L68.7012 71.0596V40.2773ZM83.5693 45.3223L68.7012 36.7295V21.5332L88.8193 33.1406C89.5576 33.5713 89.8037 34.5146 89.373 35.2324L83.5693 45.3223ZM65.625 101.924H3.07617V3.07617H65.625V101.924ZM68.7012 87.4658V77.2119L92.0596 36.7705C93.3311 34.5557 92.5723 31.7461 90.3779 30.4746L68.7012 17.9648V12.0586L101.35 30.9258L68.7012 87.4658Z" fill="#300390"/>
<path d="M13.8428 96.7969H54.8584C57.9756 96.7969 60.498 94.2744 60.498 91.1572V64.4971C60.498 61.3799 57.9756 58.8574 54.8584 58.8574H13.8428C10.7256 58.8574 8.20312 61.3799 8.20312 64.4971V91.1572C8.20312 94.2744 10.7256 96.7969 13.8428 96.7969ZM54.8584 93.7207H13.8428C12.4277 93.7207 11.2793 92.5723 11.2793 91.1572V70.1367H57.4219V91.1572C57.4219 92.5723 56.2734 93.7207 54.8584 93.7207ZM13.8428 61.9336H54.8584C56.2734 61.9336 57.4219 63.082 57.4219 64.4971V67.0605H11.2793V64.4971C11.2793 63.082 12.4277 61.9336 13.8428 61.9336Z" fill="#C913CD"/>
<path d="M50.7568 85.5176H17.9443C17.1035 85.5176 16.4062 86.2148 16.4062 87.0557C16.4062 87.8965 17.1035 88.5938 17.9443 88.5938H50.7568C51.5977 88.5938 52.2949 87.8965 52.2949 87.0557C52.2949 86.2148 51.5977 85.5176 50.7568 85.5176Z" fill="#300390"/>
<path d="M50.7568 75.2637H26.1475C25.3066 75.2637 24.6094 75.9609 24.6094 76.8018C24.6094 77.6426 25.3066 78.3398 26.1475 78.3398H50.7568C51.5977 78.3398 52.2949 77.6426 52.2949 76.8018C52.2949 75.9609 51.5977 75.2637 50.7568 75.2637Z" fill="#300390"/>
<path d="M17.9443 78.3398H19.9951C20.8359 78.3398 21.5332 77.6426 21.5332 76.8018C21.5332 75.9609 20.8359 75.2637 19.9951 75.2637H17.9443C17.1035 75.2637 16.4062 75.9609 16.4062 76.8018C16.4062 77.6426 17.1035 78.3398 17.9443 78.3398Z" fill="#300390"/>
<path d="M13.8428 52.2949H54.8584C57.9756 52.2949 60.498 49.7725 60.498 46.6553V13.8428C60.498 10.7256 57.9756 8.20312 54.8584 8.20312H13.8428C10.7256 8.20312 8.20312 10.7256 8.20312 13.8428V46.6553C8.20312 49.7725 10.7256 52.2949 13.8428 52.2949ZM13.8428 49.2188C13.5762 49.2188 13.3096 49.1777 13.043 49.0957L26.0449 32.8535L32.5049 42.5537L31.9102 43.4561C31.377 44.1123 31.459 45.0762 32.1152 45.6299C32.7715 46.1631 33.7354 46.0811 34.2891 45.4248C34.3506 45.3428 34.4121 45.2607 34.4531 45.1787L42.6562 32.874L55.6377 49.1162C55.3711 49.1982 55.1045 49.2393 54.8379 49.2393L13.8428 49.2188ZM13.8428 11.2793H54.8584C56.2734 11.2793 57.4219 12.4277 57.4219 13.8428V46.3682L43.7637 29.2852C43.2305 28.6289 42.2666 28.5059 41.5898 29.0391C41.4668 29.1416 41.3643 29.2441 41.2822 29.3877L34.3506 39.7852L27.4189 29.4082C26.9473 28.7109 25.9834 28.5059 25.2861 28.9775C25.1631 29.0596 25.04 29.1621 24.9375 29.2852L11.2793 46.3682V13.8428C11.2793 12.4277 12.4277 11.2793 13.8428 11.2793Z" fill="#C913CD"/>
<path d="M34.3506 27.6855C38.0215 27.6855 41.0156 24.6914 41.0156 21.0205C41.0156 17.3496 38.0215 14.3555 34.3506 14.3555C30.6797 14.3555 27.6855 17.3496 27.6855 21.0205C27.6855 24.6914 30.6797 27.6855 34.3506 27.6855ZM34.3506 17.4316C36.3398 17.4316 37.9395 19.0312 37.9395 21.0205C37.9395 23.0098 36.3398 24.6094 34.3506 24.6094C32.3613 24.6094 30.7617 23.0098 30.7617 21.0205C30.7617 19.0312 32.3613 17.4316 34.3506 17.4316Z" fill="#C913CD"/>
</svg>
