<svg width="106" height="113" viewBox="0 0 106 113" fill="none" xmlns="http://www.w3.org/2000/svg">
<path d="M94.2771 74.5111H44.8459C43.9354 74.5111 43.1904 75.2561 43.1904 76.1665C43.1904 77.077 43.9354 77.822 44.8459 77.822H94.2771C95.1876 77.822 95.9326 77.077 95.9326 76.1665C95.9326 75.2561 95.1876 74.5111 94.2771 74.5111Z" fill="#C913CD"/>
<path d="M94.2771 83.5665H44.8459C43.9354 83.5665 43.1904 84.3114 43.1904 85.2219C43.1904 86.1324 43.9354 86.8773 44.8459 86.8773H94.2771C95.1876 86.8773 95.9326 86.1324 95.9326 85.2219C95.9326 84.3114 95.1876 83.5665 94.2771 83.5665Z" fill="#C913CD"/>
<path d="M81.1991 92.605H44.8459C43.9354 92.605 43.1904 93.35 43.1904 94.2605C43.1904 95.171 43.9354 95.9159 44.8459 95.9159H81.1991C82.1096 95.9159 82.8546 95.171 82.8546 94.2605C82.8546 93.35 82.1096 92.605 81.1991 92.605Z" fill="#C913CD"/>
<path d="M105.12 28.0597C105.12 28.0266 105.12 28.01 105.103 27.9935C105.103 27.9604 105.103 27.9438 105.087 27.9107C105.087 27.8776 105.07 27.8279 105.054 27.7948C105.054 27.7783 105.054 27.7617 105.037 27.7452C105.021 27.712 105.004 27.6624 104.988 27.6293C104.988 27.6127 104.988 27.6127 104.971 27.5962C104.954 27.5631 104.938 27.5299 104.921 27.4803C104.921 27.4637 104.905 27.4472 104.905 27.4472C104.888 27.4141 104.872 27.381 104.855 27.3478C104.839 27.3313 104.839 27.3147 104.822 27.2982C104.806 27.2651 104.789 27.2485 104.772 27.2154C104.756 27.1989 104.739 27.1823 104.739 27.1658C104.723 27.1492 104.706 27.1161 104.673 27.0995C104.657 27.083 104.64 27.0664 104.623 27.0499L91.0654 13.4919C91.0489 13.4753 91.0323 13.4588 91.0157 13.4588C90.9826 13.4422 90.9661 13.4091 90.933 13.3925C90.9164 13.376 90.8999 13.376 90.8833 13.3594C90.8502 13.3429 90.8336 13.3098 90.8005 13.2932C90.784 13.2932 90.784 13.2767 90.7674 13.2767C90.7343 13.2601 90.7012 13.227 90.6681 13.2104C90.6681 13.2104 90.6516 13.2104 90.6516 13.1939C90.6184 13.1773 90.5688 13.1442 90.5191 13.1277C90.5191 13.1277 90.5191 13.1277 90.5026 13.1277C90.4529 13.1111 90.4032 13.0946 90.3536 13.078C90.3536 13.078 90.3536 13.078 90.337 13.078C90.2873 13.0615 90.2377 13.0449 90.188 13.0449C90.1715 13.0449 90.1715 13.0449 90.1549 13.0449C90.1053 13.0449 90.0721 13.0283 90.0225 13.0283C89.9894 13.0283 89.9563 13.0283 89.9397 13.0283C89.9231 13.0283 89.89 13.0283 89.8735 13.0283H71.2002V5.7941C71.2002 3.82413 70.2069 2.06937 68.7005 1.02645C68.6508 0.993339 68.6012 0.943676 68.535 0.927121C67.6245 0.331165 66.5484 7.81505e-05 65.3731 7.81505e-05H5.81057C2.59903 -0.0164762 0 2.59911 0 5.7941V94.1446C0 97.3561 2.61559 99.9552 5.81057 99.9552H27.8278C28.7383 99.9552 29.4833 99.2102 29.4833 98.2998C29.4833 97.3893 28.7383 96.6443 27.8278 96.6443H5.81057C4.43656 96.6443 3.31087 95.5186 3.31087 94.1446V5.7941C3.31087 4.42009 4.43656 3.29439 5.81057 3.29439H60.6054L38.9689 11.6047C36.2374 12.6476 34.284 15.197 33.9861 18.1105C33.9529 18.3423 33.9364 18.5906 33.9364 18.8224V19.7825H10.1809C8.57515 19.7825 7.2508 21.0903 7.2508 22.7126V37.5453C7.2508 39.1511 8.55859 40.4754 10.1809 40.4754H33.9364V44.9286H10.1809C8.57515 44.9286 7.2508 46.2364 7.2508 47.8587V62.6914C7.2508 64.2971 8.55859 65.6215 10.1809 65.6215H33.9364V70.6209H8.92279C8.0123 70.6209 7.26735 71.3658 7.26735 72.2763C7.26735 73.1868 8.0123 73.9318 8.92279 73.9318H33.9364V79.0471H8.92279C8.0123 79.0471 7.26735 79.792 7.26735 80.7025C7.26735 81.613 8.0123 82.3579 8.92279 82.3579H33.9364V107.189C33.9364 110.401 36.552 113 39.747 113H99.3095C102.521 113 105.12 110.384 105.12 107.189V28.2252C105.137 28.1756 105.137 28.1093 105.12 28.0597ZM91.5786 18.6568L99.4916 26.5698H94.0948C92.7208 26.5698 91.5951 25.4441 91.5951 24.0701V18.6568H91.5786ZM44.5312 13.0118L67.343 4.25454C67.6741 4.68496 67.8728 5.21469 67.8728 5.7941V13.0118H44.5312ZM10.5782 37.1646V23.1099H33.9364V37.1646H10.5782ZM10.5782 62.2941V48.2394H33.9364V62.2941H10.5782ZM99.326 109.689H39.747C38.3729 109.689 37.2473 108.563 37.2473 107.189V18.8224C37.2473 18.7727 37.2473 18.723 37.2473 18.6734C37.2473 18.6568 37.2473 18.6568 37.2473 18.6403C37.2473 18.6072 37.2473 18.5906 37.2473 18.5575V18.5409C37.3797 17.2828 38.4557 16.3061 39.7304 16.3061H88.2346V24.0535C88.2346 27.2651 90.8502 29.8641 94.0452 29.8641H101.793V107.156C101.826 108.563 100.7 109.689 99.326 109.689Z" fill="#300390"/>
<path d="M92.4063 35.0455H59.6785C58.768 35.0455 58.023 35.7904 58.023 36.7009C58.023 37.6114 58.768 38.3563 59.6785 38.3563H92.4063C92.6546 38.3563 92.8533 38.555 92.8533 38.8033V61.1848L84.4437 51.0535C83.5498 49.9775 82.2585 49.365 80.868 49.365C79.4774 49.365 78.1696 49.9775 77.2922 51.0535L73.6834 55.4073L65.9691 46.1203C65.0752 45.0443 63.7839 44.4318 62.3934 44.4318C61.0028 44.4318 59.695 45.0443 58.8176 46.1203L46.2198 61.2675V38.8033C46.2198 38.555 46.4185 38.3563 46.6668 38.3563H51.931C52.8415 38.3563 53.5865 37.6114 53.5865 36.7009C53.5865 35.7904 52.8415 35.0455 51.931 35.0455H46.6668C44.5975 35.0455 42.9089 36.734 42.9089 38.8033V62.5256C42.9089 64.5949 44.5975 66.2835 46.6668 66.2835H68.1543H92.4063C93.0354 66.2835 93.6148 66.1345 94.1445 65.8531H94.1611C95.353 65.224 96.1807 63.9659 96.1807 62.5256V38.8033C96.1642 36.734 94.4756 35.0455 92.4063 35.0455ZM79.8251 53.1725C80.1727 52.7586 80.6197 52.6924 80.8514 52.6924C81.0832 52.6924 81.5302 52.7586 81.8778 53.1725L90.0225 62.9726H71.6803L74.9415 59.0327L79.8251 53.1725ZM61.3339 48.2393C61.6815 47.8254 62.1285 47.7592 62.3603 47.7592C62.592 47.7592 63.039 47.8254 63.3866 48.2393L71.4982 58.0063L67.3597 62.9892H49.1002L61.3339 48.2393Z" fill="#C913CD"/>
</svg>
