<svg width="108" height="108" viewBox="0 0 108 108" fill="none" xmlns="http://www.w3.org/2000/svg">
<path d="M105.564 11.5957C106.908 11.5957 107.984 10.5042 107.984 9.17533V2.42039C107.984 1.07573 106.893 0 105.564 0H98.8088C97.4642 0 96.3885 1.09155 96.3885 2.42039V4.208H59.7979V2.42039C59.7979 1.09155 58.7063 0 57.3775 0H50.6225C49.2779 0 48.2021 1.09155 48.2021 2.42039V4.208H11.5957V2.42039C11.5957 1.09155 10.52 0 9.17533 0H2.42039C1.09155 0 0 1.09155 0 2.42039V9.17533C0 10.52 1.09155 11.5957 2.42039 11.5957H4.208V48.1863H2.42039C1.09155 48.2021 0 49.2779 0 50.6225V57.3775C0 58.7221 1.09155 59.7979 2.42039 59.7979H4.208V96.3885H2.42039C1.07573 96.3885 0 97.48 0 98.8088V105.564C0 106.908 1.09155 107.984 2.42039 107.984H9.17533C10.52 107.984 11.5957 106.893 11.5957 105.564V103.776H48.1863V105.564C48.1863 106.908 49.2779 107.984 50.6067 107.984H57.3617C58.7063 107.984 59.782 106.893 59.782 105.564V103.776H96.3726V105.564C96.3726 106.908 97.4642 107.984 98.793 107.984H105.548C106.893 107.984 107.968 106.893 107.968 105.564V98.8088C107.968 97.4642 106.877 96.3885 105.548 96.3885H103.776V59.7979H105.564C106.908 59.7979 107.984 58.7063 107.984 57.3775V50.6225C107.984 49.2779 106.893 48.2021 105.564 48.2021H103.776V11.5957H105.564ZM99.5524 3.16391H104.82V8.43182H99.5524V3.16391ZM51.3661 3.16391H56.634V8.43182H51.3661V3.16391ZM3.16391 3.16391H8.43182V8.43182H3.16391V3.16391ZM3.16391 51.3661H8.43182V56.634H3.16391V51.3661ZM8.43182 104.836H3.16391V99.5682H8.43182V104.836ZM56.634 104.836H51.3661V99.5682H56.634V104.836ZM104.836 104.836H99.5682V99.5682H104.836V104.836ZM104.836 56.634H99.5682V51.3661H104.836V56.634ZM100.612 48.2021H98.8247C97.48 48.2021 96.4043 49.2937 96.4043 50.6225V57.3775C96.4043 58.7221 97.4958 59.7979 98.8247 59.7979H100.612V96.3885H98.8247C97.48 96.3885 96.4043 97.48 96.4043 98.8088V100.612H59.7979V98.8247C59.7979 97.48 58.7063 96.4043 57.3775 96.4043H50.6225C49.2779 96.4043 48.2021 97.4958 48.2021 98.8247V100.612H11.5957V98.8247C11.5957 97.48 10.5042 96.4043 9.17533 96.4043H7.38773V59.7979H9.17533C10.52 59.7979 11.5957 58.7063 11.5957 57.3775V50.6225C11.5957 49.2779 10.5042 48.2021 9.17533 48.2021H7.38773V11.5957H9.17533C10.52 11.5957 11.5957 10.5042 11.5957 9.17533V7.38773H48.1863V9.17533C48.1863 10.52 49.2779 11.5957 50.6067 11.5957H57.3617C58.7063 11.5957 59.782 10.5042 59.782 9.17533V7.38773H96.3726V9.17533C96.3726 10.52 97.4642 11.5957 98.793 11.5957H100.612V48.2021Z" fill="#300390"/>
<path d="M77.4209 22.4005C75.8231 19.632 72.849 17.9235 69.6535 17.9235H38.3466C35.151 17.9235 32.177 19.6479 30.5792 22.4005L14.9337 49.5152C13.3359 52.2836 13.3359 55.7164 14.9337 58.4849L28.5385 82.056L30.5792 85.5996C32.177 88.368 35.151 90.0765 38.3466 90.0765H69.6535C72.849 90.0765 75.8231 88.3522 77.4209 85.5996L79.4616 82.0718L79.4774 82.056L84.9036 72.6592C85.3465 71.8998 85.0776 70.9348 84.3182 70.4919C83.5589 70.0489 82.5939 70.3179 82.1509 71.0772L77.152 79.7305H30.8323L17.6546 56.9187C16.6263 55.1311 16.6263 52.9006 17.6546 51.1129L30.5001 28.8865H41.4789C42.3489 28.8865 43.0608 28.1746 43.0608 27.3045C43.0608 26.4344 42.3489 25.7226 41.4789 25.7226H32.3352L33.3318 24.0141C34.3601 22.2264 36.2901 21.1191 38.3624 21.1191H69.6693C71.7417 21.1191 73.6558 22.2264 74.6999 24.0141L75.6966 25.7226H48.8666C47.9965 25.7226 47.2846 26.4344 47.2846 27.3045C47.2846 28.1746 47.9965 28.8865 48.8666 28.8865H77.5L90.3297 51.0971C91.3579 52.8847 91.3579 55.1153 90.3297 56.9029L85.9793 64.4488C85.5363 65.2082 85.8053 66.1732 86.5646 66.6161C87.3239 67.0591 88.2889 66.7901 88.7319 66.0308L93.0823 58.4849C94.68 55.7164 94.68 52.2836 93.0823 49.5152L77.4209 22.4005ZM75.3327 82.8786L74.6683 84.0176C73.64 85.8052 71.71 86.9126 69.6377 86.9126H38.3466C36.2742 86.9126 34.3601 85.8052 33.316 84.0176L32.6674 82.8786H75.3327Z" fill="#C913CD"/>
<path d="M26.8616 46.5569C25.9915 46.5569 25.2796 47.2688 25.2796 48.1389V59.6397C25.2796 60.6205 26.0706 61.4273 27.0514 61.4273C27.2571 61.4273 27.5893 61.4273 27.969 61.4273C29.1713 61.4273 30.8798 61.4115 30.9747 61.4115C31.8448 61.4115 32.5566 60.6996 32.5408 59.8137C32.5408 58.9437 31.8289 58.2476 30.9589 58.2476C30.9589 58.2476 30.9589 58.2476 30.943 58.2476C30.9272 58.2476 29.5667 58.2476 28.4277 58.2634V48.1231C28.4436 47.2688 27.7317 46.5569 26.8616 46.5569Z" fill="#C913CD"/>
<path d="M58.7379 49.7366C59.7187 49.6575 60.6837 49.9106 61.4905 50.4485C62.2182 50.9389 63.199 50.7491 63.6894 50.0214C64.1798 49.2937 63.99 48.3128 63.2623 47.8224C61.8544 46.8733 60.1933 46.4303 58.4848 46.5727C54.8621 46.8574 51.9197 49.8315 51.6666 53.4542C51.5242 55.5424 52.2203 57.5356 53.644 59.0543C55.052 60.5572 57.0294 61.4272 59.086 61.4272C62.8985 61.4272 65.6352 58.4532 65.7302 54.2135C65.746 53.7389 65.5561 53.2802 65.2239 52.9321C64.8917 52.5999 64.433 52.3943 63.9584 52.3943H60.6363C59.7662 52.3943 59.0543 53.1062 59.0543 53.9762C59.0543 54.8463 59.7662 55.5582 60.6363 55.5582H62.3606C61.9651 57.0294 60.9843 58.2475 59.086 58.2475C57.8837 58.2475 56.7763 57.7571 55.9537 56.887C55.1311 56.017 54.7356 54.8621 54.8147 53.6598C54.9729 51.6033 56.6497 49.8948 58.7379 49.7366Z" fill="#C913CD"/>
<path d="M75.2852 61.4431C79.3825 61.4431 82.7204 58.1051 82.7204 54.0079C82.7204 49.9106 79.3825 46.5727 75.2852 46.5727C71.188 46.5727 67.85 49.9106 67.85 54.0079C67.85 58.1051 71.1721 61.4431 75.2852 61.4431ZM75.2852 49.7208C77.6423 49.7208 79.5565 51.6349 79.5565 53.9921C79.5565 56.3492 77.6423 58.2633 75.2852 58.2633C72.9281 58.2633 71.0139 56.3492 71.0139 53.9921C71.0139 51.6349 72.9123 49.7208 75.2852 49.7208Z" fill="#C913CD"/>
<path d="M34.6447 53.9921C34.6447 58.0894 37.9827 61.4273 42.0799 61.4273C46.1772 61.4273 49.5151 58.0894 49.5151 53.9921C49.5151 49.8949 46.1772 46.5569 42.0799 46.5569C37.9827 46.5569 34.6447 49.8949 34.6447 53.9921ZM42.0958 49.7209C44.4529 49.7209 46.367 51.635 46.367 53.9921C46.367 56.3492 44.4529 58.2634 42.0958 58.2634C39.7386 58.2634 37.8245 56.3492 37.8245 53.9921C37.8245 51.635 39.7386 49.7209 42.0958 49.7209Z" fill="#C913CD"/>
<path d="M68.467 37.5082C68.3721 35.1985 66.4263 33.3793 64.0534 33.3793H46.1931C45.0224 33.3793 43.8834 33.8697 43.0608 34.7081C42.2382 35.5624 41.8111 36.7014 41.8585 37.8878C41.9535 40.1975 43.8993 42.0167 46.2564 42.0167H64.1166C65.2873 42.0167 66.4263 41.5263 67.2331 40.6879C68.0873 39.8336 68.5145 38.7105 68.467 37.5082ZM64.9867 38.5048C64.7652 38.7421 64.4647 38.8687 64.1483 38.8687H46.2722C45.6078 38.8687 45.0541 38.3782 45.0224 37.7613C45.0066 37.4449 45.1174 37.1285 45.3388 36.907C45.5603 36.6697 45.8609 36.5432 46.1773 36.5432H64.0375C64.702 36.5432 65.2556 37.0336 65.2873 37.6505C65.3189 37.9828 65.2082 38.2833 64.9867 38.5048Z" fill="#300390"/>
<path d="M46.2722 74.9055H64.1324C65.3031 74.9055 66.4421 74.4151 67.2489 73.5767C68.0715 72.7224 68.4986 71.5834 68.4512 70.397C68.3563 68.0873 66.4104 66.2681 64.0375 66.2681H46.1931C45.0224 66.2681 43.8834 66.7585 43.0608 67.5969C42.2382 68.4512 41.8111 69.5902 41.8585 70.7766C41.9693 73.0863 43.9151 74.9055 46.2722 74.9055ZM45.3547 69.78C45.5761 69.5427 45.8767 69.4162 46.1931 69.4162H64.0533C64.7178 69.4162 65.2714 69.9066 65.3031 70.5235C65.3189 70.8399 65.2082 71.1563 64.9867 71.3778C64.7652 71.6151 64.4646 71.7416 64.1483 71.7416H46.2722C45.6078 71.7416 45.0541 71.2512 45.0224 70.6343C45.0224 70.302 45.1332 70.0015 45.3547 69.78Z" fill="#300390"/>
</svg>
