<svg width="119" height="109" viewBox="0 0 119 109" fill="none" xmlns="http://www.w3.org/2000/svg">
<path d="M108.99 34.6834H107.62L90.5969 4.95672C89.2731 2.65755 87.1597 1.00865 84.6051 0.335157C83.6529 0.0796936 82.7008 -0.036426 81.7486 0.0100219C80.1461 0.0564698 78.5901 0.520949 77.1502 1.33379L4.90048 43.3924C1.74202 45.227 -0.0229976 48.5713 0.000226316 52.0084C0.000226316 53.6806 0.441482 55.3527 1.32399 56.8855L14.8636 80.5507V99.0834C14.8636 104.541 19.2993 109 24.7802 109H109.013C114.471 109 118.93 104.564 118.93 99.0834V44.5768C118.907 39.1191 114.471 34.6834 108.99 34.6834ZM14.8636 44.5768V70.5876L5.62042 54.4237C4.27344 52.0549 5.06305 49.0126 7.40867 47.6656L15.0029 43.253C14.9332 43.6943 14.8636 44.1355 14.8636 44.5768ZM79.6584 5.60699C80.7732 4.95672 82.0969 4.77093 83.351 5.11929C84.6051 5.46765 85.6734 6.28049 86.3237 7.41846L101.93 34.6834H29.7269L79.6584 5.60699ZM113.96 99.0834C113.96 101.824 111.731 104.03 109.013 104.03H24.7802C22.0398 104.03 19.8335 101.801 19.8335 99.0834V44.5768C19.8335 41.8363 22.063 39.6301 24.7802 39.6301H109.013C111.754 39.6301 113.96 41.8596 113.96 44.5768V99.0834Z" fill="#300390"/>
<path d="M106.529 79.2731H76.8019C75.4316 79.2731 74.3169 80.3878 74.3169 81.758C74.3169 83.1282 75.4316 84.243 76.8019 84.243H106.529C107.899 84.243 109.014 83.1282 109.014 81.758C108.99 80.3646 107.899 79.2731 106.529 79.2731Z" fill="#C913CD"/>
<path d="M106.529 64.4095H66.8854C65.5152 64.4095 64.4005 65.5243 64.4005 66.8945C64.4005 68.2647 65.5152 69.3562 66.8854 69.3562H106.529C107.899 69.3562 109.014 68.2415 109.014 66.8713C108.99 65.5011 107.899 64.4095 106.529 64.4095Z" fill="#C913CD"/>
<path d="M44.5902 74.3032C50.0478 74.3032 54.5068 69.8675 54.5068 64.3866C54.5068 58.9058 50.0478 54.4932 44.5902 54.4932C39.1325 54.4932 34.6735 58.929 34.6735 64.4098C34.6735 69.8907 39.1325 74.3032 44.5902 74.3032ZM44.5902 59.4399C47.3306 59.4399 49.5369 61.6694 49.5369 64.3866C49.5369 67.1038 47.3306 69.3565 44.5902 69.3565C41.8497 69.3565 39.6435 67.127 39.6435 64.4098C39.6435 61.6694 41.8497 59.4399 44.5902 59.4399Z" fill="#C913CD"/>
<path d="M59.3838 80.435C55.9235 78.7629 50.5355 76.7888 44.5902 76.7888C38.6449 76.7888 33.2569 78.7861 29.7965 80.435C26.7077 81.9213 24.7802 84.894 24.7802 88.1918V89.3297C24.7802 91.9773 27.0097 94.1371 29.7269 94.1371H59.4535C62.1939 94.1371 64.4002 91.9773 64.4002 89.3297V88.1918C64.4002 84.894 62.4959 81.9213 59.3838 80.435ZM59.4535 89.1672L29.7269 89.3297V88.1918C29.7269 86.8216 30.5629 85.5442 31.9331 84.894C34.929 83.4541 39.5506 81.7355 44.5902 81.7355C49.6298 81.7355 54.2514 83.4541 57.2472 84.894C58.6175 85.5442 59.4535 86.8216 59.4535 88.1918V89.1672Z" fill="#C913CD"/>
</svg>
