<svg width="122" height="121" viewBox="0 0 122 121" fill="none" xmlns="http://www.w3.org/2000/svg">
<path d="M31.0888 22.9701L17.763 25.0965C16.7942 25.2619 16.1327 26.1598 16.2981 27.1285C16.4398 28.0027 17.1959 28.617 18.0465 28.617C18.141 28.617 18.2355 28.617 18.33 28.5934L31.6558 26.4669C32.6246 26.3015 33.2861 25.4037 33.1207 24.435C32.9554 23.4662 32.0575 22.8047 31.0888 22.9701Z" fill="#300390"/>
<path d="M26.7187 29.7503L18.6854 31.0261C17.7167 31.1915 17.0552 32.0894 17.2205 33.0581C17.3623 33.9323 18.1184 34.5466 18.969 34.5466C19.0635 34.5466 19.158 34.5466 19.2525 34.523L27.2858 33.2471C28.2545 33.0817 28.9161 32.1839 28.7507 31.2152C28.5853 30.2464 27.6875 29.6085 26.7187 29.7503Z" fill="#300390"/>
<path d="M118.038 59.2617L95.4975 54.5362L90.4649 22.9464C90.2995 21.9777 89.4017 21.3161 88.433 21.4815C87.4642 21.6469 86.8027 22.5448 86.9681 23.5135L91.788 53.7801L88.0786 53.0004L81.0376 8.93539C80.9667 8.46284 80.7068 8.06117 80.3288 7.77765C79.9507 7.49412 79.4782 7.39961 79.0056 7.47049L9.28129 18.6226C8.31257 18.788 7.651 19.6858 7.8164 20.6546L15.07 66.2081C15.1409 66.6807 15.4008 67.0823 15.7788 67.3659C16.086 67.5785 16.4404 67.6966 16.8184 67.6966C16.9129 67.6966 17.0074 67.6966 17.1019 67.673L30.2624 65.5702L29.5772 68.8308L12.4946 71.5715C12.4474 71.5715 12.4001 71.5715 12.3765 71.5479C12.3292 71.5243 12.3056 71.477 12.3056 71.4298L3.56347 16.567C3.53984 16.4725 3.61073 16.378 3.70524 16.378L83.613 3.57197C83.6602 3.57197 83.7075 3.57197 83.7311 3.5956C83.7547 3.61923 83.802 3.66648 83.802 3.71374L85.7631 15.9527C85.9285 16.9214 86.8263 17.583 87.795 17.4176C88.7637 17.2522 89.4253 16.3544 89.2599 15.3857L87.2988 3.14668C87.1335 2.15433 86.6137 1.30375 85.8103 0.713063C85.007 0.122379 84.0146 -0.113895 83.0459 0.0514969L3.13818 12.8575C1.10622 13.1883 -0.264162 15.0785 0.0429937 17.1105L8.78512 71.9732C8.95051 72.9656 9.47031 73.8161 10.2736 74.4068C10.9116 74.8794 11.6677 75.1156 12.4474 75.1156C12.6364 75.1156 12.849 75.092 13.038 75.0684L26.1985 72.9656L18.7795 80.3845C18.4251 80.6917 18.0943 80.9989 17.7635 81.3296C17.6454 81.4478 17.5745 81.5659 17.5036 81.6841L14.1958 85.0391C13.5106 85.7243 13.5106 86.8584 14.1958 87.5436C14.881 88.2288 16.0151 88.2288 16.7003 87.5436L21.2604 82.9836C23.9066 80.739 27.2381 79.5103 30.7586 79.5103C34.7043 79.5103 38.3902 81.0461 41.1782 83.8341C46.9197 89.5756 46.9197 98.9084 41.2019 104.65L29.1519 116.723C28.6794 117.196 28.065 117.456 27.4035 117.456C26.7419 117.456 26.1276 117.196 25.6551 116.723L8.35983 99.4046C7.3911 98.4359 7.3911 96.8528 8.35983 95.8841L11.7858 92.4581C12.471 91.7729 12.471 90.6388 11.7858 89.9536C11.1006 89.2684 9.96649 89.2684 9.28129 89.9536L5.85533 93.3796C3.51622 95.7187 3.51622 99.5463 5.85533 101.909L23.1506 119.228C24.2847 120.362 25.7968 121 27.4035 121C29.0101 121 30.5223 120.362 31.6564 119.228L42.9739 107.887L105.185 120.905C105.445 120.953 105.705 120.976 105.964 120.976C106.673 120.976 107.382 120.764 107.996 120.362C108.823 119.819 109.39 118.992 109.603 117.999L120.944 63.6091C121.322 61.648 120.046 59.6633 118.038 59.2617ZM84.3454 52.1971L64.8056 48.1096C64.8056 48.1096 64.8056 48.1096 64.782 48.1096L56.4888 46.3848C57.3866 45.1561 57.6938 43.644 57.3866 41.8956C57.2212 40.9977 56.8904 40.1944 56.6069 39.5092C55.9926 38.0679 55.9217 37.6663 56.3943 37.0283C57.2921 35.7997 59.5131 35.7524 61.3324 35.7052H61.4269C61.8049 35.7052 62.2302 35.6816 62.6791 35.6816C66.8139 35.6343 73.0516 35.5634 75.2962 31.6413C76.194 30.0583 76.0286 28.7351 75.7214 27.9082C74.7055 25.191 70.9723 23.8443 68.2552 22.8755C67.6409 22.6629 67.0502 22.4502 66.6722 22.2848C66.1287 22.0486 65.7271 21.7178 65.6326 21.4343C65.538 21.1507 65.7034 20.7254 65.8452 20.4892L70.6652 12.4086L77.8479 11.2509L84.3454 52.1971ZM56.9849 62.1915C55.8508 61.0574 54.3387 60.4194 52.732 60.4194H41.2255C39.6188 60.4194 38.1067 61.0574 36.9726 62.1915L33.9483 65.2394L37.894 46.2903C37.894 46.243 37.9177 46.1957 37.9649 46.1721C38.0122 46.1485 38.0594 46.1485 38.1067 46.1485L62.6791 51.2993V58.0567C62.6791 59.1435 62.2538 60.1595 61.4978 60.9392L58.6152 63.8218L56.9849 62.1915ZM18.2833 63.8926L11.5968 21.8596L66.0815 13.1411L62.75 18.7171C62.7264 18.7407 62.7264 18.7644 62.7028 18.8116C61.8285 20.4655 61.9939 21.7887 62.2775 22.6156C62.7028 23.8679 63.7187 24.8602 65.2073 25.5454C65.7034 25.7581 66.3177 25.9943 67.0502 26.2542C68.6332 26.8213 71.9647 28.0027 72.39 29.1604C72.4136 29.2313 72.4845 29.4439 72.2246 29.9165C70.9723 32.0902 65.538 32.1375 62.6319 32.1847C62.1593 32.1847 61.7104 32.1847 61.3087 32.2083H61.2142C58.8988 32.2792 55.4255 32.3737 53.5117 34.9964C51.8105 37.3355 52.6848 39.4147 53.3463 40.9505C53.5826 41.5175 53.8189 42.061 53.9134 42.5808C54.126 43.7858 53.8898 44.6836 52.0704 45.5342L38.8391 42.7698C37.8704 42.5571 36.8781 42.7462 36.0511 43.2896C35.2241 43.833 34.6571 44.66 34.4444 45.6523L31.0421 61.9552L18.2833 63.8926ZM43.6827 81.3296C40.2331 77.88 35.6258 75.9662 30.7586 75.9662C29.8607 75.9662 28.9629 76.0371 28.065 76.1553L39.5007 64.696C39.9732 64.2234 40.5876 63.9635 41.2491 63.9635H52.7556C53.4172 63.9635 54.0315 64.2234 54.5041 64.696L56.158 66.3499L54.5749 67.9566C53.8189 67.5785 53.0155 67.3895 52.1413 67.3895C50.6764 67.3895 49.2824 67.9566 48.2428 68.9962C46.0927 71.1462 46.0927 74.6431 48.2428 76.7932C49.2824 77.8328 50.6528 78.3998 52.1413 78.3998C53.6062 78.3998 55.0002 77.8328 56.0398 76.7932C57.741 75.092 58.0954 72.5166 57.0794 70.4611L58.6625 68.8544L60.3164 70.5083C60.7889 70.9809 61.0488 71.6188 61.0488 72.2567V83.7633C61.0488 84.4248 60.7889 85.0391 60.3164 85.5117L48.8335 97.0182C49.6605 91.4894 47.9357 85.6062 43.6827 81.3296ZM53.4881 71.5007C54.2442 72.2567 54.2442 73.509 53.4881 74.2887C53.1101 74.6667 52.6375 74.8557 52.0941 74.8557C51.5743 74.8557 51.0781 74.6431 50.7001 74.2887C49.944 73.5326 49.944 72.2804 50.7001 71.5007C51.0781 71.1226 51.5506 70.9336 52.0941 70.9336C52.6375 70.9336 53.1101 71.1462 53.4881 71.5007ZM117.447 62.9239L106.106 117.314C106.106 117.361 106.083 117.409 106.035 117.432C105.988 117.456 105.964 117.456 105.894 117.456L45.951 104.91L62.7973 88.0398C63.9314 86.9057 64.5693 85.3935 64.5693 83.7869V72.2804C64.5693 70.6737 63.955 69.1615 62.7973 68.0274L61.1197 66.3499L64.0023 63.4437C65.4199 62.0025 66.2232 60.0886 66.2232 58.0567V52.0317L117.306 62.7113C117.4 62.7349 117.471 62.8294 117.447 62.9239Z" fill="#300390"/>
<path d="M110.784 65.7827L100.27 63.5853C99.3015 63.3963 98.38 64.0106 98.1673 64.9557L95.4029 78.187C95.2139 79.1557 95.8282 80.0772 96.7733 80.2899L107.288 82.4872C107.406 82.5108 107.524 82.5345 107.642 82.5345C107.973 82.5345 108.327 82.44 108.611 82.2509C109.012 81.991 109.272 81.5894 109.367 81.1404L112.131 67.9091C112.226 67.4602 112.131 66.964 111.871 66.586C111.635 66.1607 111.233 65.8772 110.784 65.7827ZM106.272 78.6596L99.2069 77.1947L101.239 67.4366L108.303 68.9015L106.272 78.6596Z" fill="#C913CD"/>
<path d="M75.2479 66.1855C74.2792 65.9729 73.3577 66.6108 73.1451 67.5559L66.7893 98.0352C66.6003 99.0039 67.2146 99.9254 68.1597 100.138C68.2778 100.162 68.396 100.185 68.5141 100.185C69.341 100.185 70.0735 99.6182 70.2389 98.7677L76.5947 68.2884C76.8309 67.3433 76.2166 66.3982 75.2479 66.1855Z" fill="#C913CD"/>
<path d="M100.931 89.6693L81.3678 85.5818C80.3991 85.3928 79.4776 86.0071 79.265 86.9522C79.0524 87.8973 79.6903 88.8424 80.6354 89.055L100.199 93.1425C100.317 93.1662 100.435 93.1898 100.553 93.1898C101.38 93.1898 102.113 92.6227 102.278 91.7721C102.514 90.8034 101.9 89.8583 100.931 89.6693Z" fill="#C913CD"/>
<path d="M99.5607 96.2629L79.9972 92.1754C79.0285 91.9864 78.107 92.6007 77.8944 93.5458C77.6817 94.4909 78.3197 95.436 79.2648 95.6486L98.8282 99.7362C98.9464 99.7598 99.0645 99.7834 99.1827 99.7834C100.01 99.7834 100.742 99.2164 100.907 98.3658C101.12 97.4207 100.506 96.4756 99.5607 96.2629Z" fill="#C913CD"/>
<path d="M18.4952 100.87C18.7787 101.555 19.4403 101.98 20.1255 101.98C20.3381 101.98 20.5744 101.933 20.787 101.838L36.5229 95.3881C37.4207 95.0101 37.8696 93.9941 37.4916 93.0726C37.1135 92.1748 36.0976 91.7258 35.1761 92.1039L19.4639 98.5542C18.5661 98.9322 18.1408 99.9482 18.4952 100.87Z" fill="#C913CD"/>
<path d="M31.6811 88.844C31.6811 86.2686 29.5783 84.1658 27.0029 84.1658C24.4275 84.1658 22.3247 86.2686 22.3247 88.844C22.3247 91.4194 24.4275 93.5222 27.0029 93.5222C29.5783 93.5222 31.6811 91.4194 31.6811 88.844ZM25.8688 88.844C25.8688 88.2061 26.3886 87.7099 27.0029 87.7099C27.6172 87.7099 28.137 88.2297 28.137 88.844C28.137 89.4819 27.6172 89.9781 27.0029 89.9781C26.3886 89.9781 25.8688 89.4583 25.8688 88.844Z" fill="#C913CD"/>
<path d="M23.9532 105.194C23.9532 107.77 26.0561 109.872 28.6315 109.872C31.2068 109.872 33.3097 107.77 33.3097 105.194C33.3097 102.619 31.2068 100.516 28.6315 100.516C26.0325 100.516 23.9532 102.619 23.9532 105.194ZM29.7656 105.194C29.7656 105.832 29.2458 106.328 28.6315 106.328C28.0172 106.328 27.4974 105.809 27.4974 105.194C27.4974 104.58 28.0172 104.06 28.6315 104.06C29.2458 104.06 29.7656 104.556 29.7656 105.194Z" fill="#C913CD"/>
</svg>
